<svg width="240" height="70" viewBox="0 0 240 70" fill="none" xmlns="http://www.w3.org/2000/svg">
<path d="M99.316 38.972C99.628 38.972 99.868 39.116 100.036 39.404C100.228 39.692 100.324 40.088 100.324 40.592C100.324 41.528 100.096 42.272 99.64 42.824C98.488 44.216 97.324 45.296 96.148 46.064C94.972 46.808 93.58 47.18 91.972 47.18C90.412 47.18 89.08 46.76 87.976 45.92C86.896 45.08 85.864 43.64 84.88 41.6C84.088 39.968 83.464 38.768 83.008 38C82.552 37.208 82.096 36.644 81.64 36.308C81.208 35.972 80.668 35.768 80.02 35.696C79.924 36.2 79.648 37.784 79.192 40.448C79 41.648 78.88 42.38 78.832 42.644C78.592 44.108 78.112 45.236 77.392 46.028C76.672 46.796 75.58 47.18 74.116 47.18C72.508 47.18 71.08 46.712 69.832 45.776C68.608 44.816 67.66 43.496 66.988 41.816C66.316 40.112 65.98 38.18 65.98 36.02C65.98 31.988 66.676 28.508 68.068 25.58C69.484 22.652 71.452 20.42 73.972 18.884C76.516 17.324 79.444 16.544 82.756 16.544C85.06 16.544 86.992 16.892 88.552 17.588C90.112 18.284 91.264 19.244 92.008 20.468C92.776 21.692 93.16 23.072 93.16 24.608C93.16 25.952 92.836 27.272 92.188 28.568C91.564 29.84 90.616 30.968 89.344 31.952C88.072 32.936 86.524 33.668 84.7 34.148C85.852 34.46 86.74 34.964 87.364 35.66C87.988 36.356 88.612 37.376 89.236 38.72C89.908 40.16 90.568 41.216 91.216 41.888C91.888 42.56 92.656 42.896 93.52 42.896C94.288 42.896 95.02 42.644 95.716 42.14C96.412 41.612 97.288 40.724 98.344 39.476C98.632 39.14 98.956 38.972 99.316 38.972ZM75.052 35.66C74.236 35.66 73.672 35.468 73.36 35.084C73.072 34.7 72.928 34.268 72.928 33.788C72.928 33.212 73.108 32.756 73.468 32.42C73.852 32.084 74.284 31.916 74.764 31.916H75.664C76.048 29.564 76.408 27.536 76.744 25.832C77.056 24.272 78.064 23.492 79.768 23.492C81.136 23.492 81.82 24.104 81.82 25.328C81.82 25.592 81.808 25.796 81.784 25.94L80.704 31.916C82 31.844 83.176 31.532 84.232 30.98C85.312 30.428 86.164 29.66 86.788 28.676C87.436 27.692 87.76 26.576 87.76 25.328C87.76 23.816 87.244 22.628 86.212 21.764C85.18 20.9 83.668 20.468 81.676 20.468C79.324 20.468 77.26 21.056 75.484 22.232C73.732 23.384 72.364 25.112 71.38 27.416C70.396 29.696 69.904 32.48 69.904 35.768C69.904 37.304 70.06 38.624 70.372 39.728C70.684 40.832 71.068 41.66 71.524 42.212C71.98 42.764 72.412 43.04 72.82 43.04C73.132 43.04 73.384 42.884 73.576 42.572C73.792 42.26 73.96 41.756 74.08 41.06L75.052 35.66ZM112.757 38.972C113.069 38.972 113.309 39.116 113.477 39.404C113.669 39.692 113.765 40.088 113.765 40.592C113.765 41.552 113.537 42.296 113.081 42.824C112.193 43.904 110.933 44.9 109.301 45.812C107.693 46.724 105.965 47.18 104.117 47.18C101.597 47.18 99.6407 46.496 98.2487 45.128C96.8567 43.76 96.1607 41.888 96.1607 39.512C96.1607 37.856 96.5087 36.32 97.2047 34.904C97.9007 33.464 98.8607 32.324 100.085 31.484C101.333 30.644 102.737 30.224 104.297 30.224C105.689 30.224 106.805 30.644 107.645 31.484C108.485 32.3 108.905 33.416 108.905 34.832C108.905 36.488 108.305 37.916 107.105 39.116C105.929 40.292 103.925 41.228 101.093 41.924C101.693 43.028 102.833 43.58 104.513 43.58C105.593 43.58 106.817 43.208 108.185 42.464C109.577 41.696 110.777 40.7 111.785 39.476C112.073 39.14 112.397 38.972 112.757 38.972ZM103.685 33.752C102.797 33.752 102.041 34.268 101.417 35.3C100.817 36.332 100.517 37.58 100.517 39.044V39.116C101.933 38.78 103.049 38.276 103.865 37.604C104.681 36.932 105.089 36.152 105.089 35.264C105.089 34.808 104.957 34.448 104.693 34.184C104.453 33.896 104.117 33.752 103.685 33.752ZM117.529 47.972C116.281 47.972 115.321 47.684 114.649 47.108C114.001 46.532 113.677 45.884 113.677 45.164C113.677 44.54 113.905 44 114.361 43.544C114.817 43.088 115.489 42.86 116.377 42.86C116.689 42.86 117.049 42.896 117.457 42.968C117.889 43.016 118.213 43.052 118.429 43.076C118.405 42.452 118.261 41.864 117.997 41.312C117.757 40.76 117.445 40.232 117.061 39.728C116.677 39.2 116.317 38.744 115.981 38.36C115.237 39.776 114.493 40.952 113.749 41.888C113.029 42.824 112.237 43.712 111.373 44.552C110.941 44.984 110.485 45.2 110.005 45.2C109.621 45.2 109.309 45.068 109.069 44.804C108.829 44.516 108.709 44.168 108.709 43.76C108.709 43.28 108.877 42.836 109.213 42.428L109.681 41.852C111.001 40.22 111.997 38.876 112.669 37.82C113.077 37.124 113.557 36.2 114.109 35.048C114.661 33.872 115.201 32.66 115.729 31.412C116.185 30.356 117.133 29.828 118.573 29.828C119.245 29.828 119.713 29.888 119.977 30.008C120.241 30.128 120.373 30.32 120.373 30.584C120.373 30.728 120.325 30.956 120.229 31.268C120.133 31.58 120.001 31.892 119.833 32.204C119.401 33.068 119.185 33.8 119.185 34.4C119.185 34.76 119.305 35.156 119.545 35.588C119.809 36.02 120.205 36.56 120.733 37.208C121.501 38.216 122.077 39.08 122.461 39.8C122.869 40.496 123.073 41.264 123.073 42.104C123.073 42.344 123.049 42.68 123.001 43.112C124.177 42.656 125.557 41.444 127.141 39.476C127.429 39.14 127.753 38.972 128.113 38.972C128.425 38.972 128.665 39.116 128.833 39.404C129.025 39.692 129.121 40.088 129.121 40.592C129.121 41.504 128.893 42.248 128.437 42.824C127.237 44.312 126.085 45.332 124.981 45.884C123.901 46.412 122.557 46.7 120.949 46.748C119.989 47.564 118.849 47.972 117.529 47.972ZM142.253 38.972C142.565 38.972 142.805 39.116 142.973 39.404C143.165 39.692 143.261 40.088 143.261 40.592C143.261 41.552 143.033 42.296 142.577 42.824C141.689 43.904 140.429 44.9 138.797 45.812C137.189 46.724 135.461 47.18 133.613 47.18C131.093 47.18 129.137 46.496 127.745 45.128C126.353 43.76 125.657 41.888 125.657 39.512C125.657 37.856 126.005 36.32 126.701 34.904C127.397 33.464 128.357 32.324 129.581 31.484C130.829 30.644 132.233 30.224 133.793 30.224C135.185 30.224 136.301 30.644 137.141 31.484C137.981 32.3 138.401 33.416 138.401 34.832C138.401 36.488 137.801 37.916 136.601 39.116C135.425 40.292 133.421 41.228 130.589 41.924C131.189 43.028 132.329 43.58 134.009 43.58C135.089 43.58 136.313 43.208 137.681 42.464C139.073 41.696 140.273 40.7 141.281 39.476C141.569 39.14 141.893 38.972 142.253 38.972ZM133.181 33.752C132.293 33.752 131.537 34.268 130.913 35.3C130.313 36.332 130.013 37.58 130.013 39.044V39.116C131.429 38.78 132.545 38.276 133.361 37.604C134.177 36.932 134.585 36.152 134.585 35.264C134.585 34.808 134.453 34.448 134.189 34.184C133.949 33.896 133.613 33.752 133.181 33.752ZM160.257 38.972C160.569 38.972 160.809 39.116 160.977 39.404C161.169 39.692 161.265 40.088 161.265 40.592C161.265 41.552 161.037 42.296 160.581 42.824C159.549 44.096 158.433 45.14 157.233 45.956C156.057 46.772 154.713 47.18 153.201 47.18C151.929 47.18 150.897 46.724 150.105 45.812C148.737 46.7 147.309 47.156 145.821 47.18C145.509 51.812 144.801 55.676 143.697 58.772C142.593 61.892 140.973 63.452 138.837 63.452C137.541 63.452 136.581 62.984 135.957 62.048C135.333 61.112 135.021 59.816 135.021 58.16C135.021 55.808 135.561 53.06 136.641 49.916C137.721 46.796 139.389 43.352 141.645 39.584C141.645 36.08 141.621 33.644 141.573 32.276C141.549 31.58 141.825 31.028 142.401 30.62C142.977 30.212 143.697 30.008 144.561 30.008C145.065 30.008 145.425 30.116 145.641 30.332C145.881 30.524 146.013 30.92 146.037 31.52C146.037 32.12 146.049 32.564 146.073 32.852C146.841 31.892 147.597 31.208 148.341 30.8C149.085 30.368 149.877 30.152 150.717 30.152C152.061 30.152 153.153 30.692 153.993 31.772C154.857 32.852 155.289 34.268 155.289 36.02C155.289 37.292 155.085 38.528 154.677 39.728C154.269 40.928 153.705 42.02 152.985 43.004C153.489 43.148 153.909 43.22 154.245 43.22C155.037 43.22 155.793 42.932 156.513 42.356C157.233 41.78 158.157 40.82 159.285 39.476C159.573 39.14 159.897 38.972 160.257 38.972ZM146.001 43.724C146.865 43.532 147.657 43.064 148.377 42.32C149.121 41.552 149.709 40.616 150.141 39.512C150.573 38.384 150.789 37.208 150.789 35.984C150.789 35.264 150.645 34.724 150.357 34.364C150.069 33.98 149.685 33.788 149.205 33.788C148.341 33.788 147.297 34.7 146.073 36.524C146.049 37.58 146.037 39.128 146.037 41.168C146.037 42.272 146.025 43.124 146.001 43.724ZM139.125 59.924C139.773 59.924 140.313 58.508 140.745 55.676C141.177 52.868 141.453 49.364 141.573 45.164C140.541 47.564 139.725 49.856 139.125 52.04C138.525 54.224 138.225 56.06 138.225 57.548C138.225 58.316 138.321 58.904 138.513 59.312C138.681 59.72 138.885 59.924 139.125 59.924ZM194.005 38.972C194.317 38.972 194.557 39.116 194.725 39.404C194.917 39.692 195.013 40.088 195.013 40.592C195.013 41.528 194.785 42.272 194.329 42.824C193.177 44.216 192.013 45.296 190.837 46.064C189.661 46.808 188.269 47.18 186.661 47.18C184.885 47.18 183.433 46.664 182.305 45.632C181.177 44.576 180.121 42.944 179.137 40.736C178.417 39.152 177.817 37.976 177.337 37.208C176.881 36.416 176.425 35.864 175.969 35.552C175.513 35.216 174.937 35.012 174.241 34.94L173.845 37.604C173.341 41.036 172.357 43.508 170.893 45.02C169.453 46.532 167.461 47.288 164.917 47.288C163.261 47.288 161.785 46.892 160.489 46.1C159.217 45.284 158.329 44.252 157.825 43.004C157.657 42.572 157.573 42.104 157.573 41.6C157.573 40.88 157.741 40.256 158.077 39.728C158.413 39.2 158.845 38.936 159.373 38.936C159.685 38.936 159.949 39.02 160.165 39.188C160.381 39.332 160.585 39.596 160.777 39.98C161.521 41.372 162.169 42.344 162.721 42.896C163.297 43.448 164.005 43.724 164.845 43.724C165.805 43.724 166.621 43.292 167.293 42.428C167.989 41.54 168.481 40.184 168.769 38.36L169.273 34.94H168.697C168.145 34.94 167.713 34.784 167.401 34.472C167.089 34.16 166.933 33.728 166.933 33.176C166.933 32.552 167.089 32.06 167.401 31.7C167.737 31.316 168.145 31.124 168.625 31.124H169.813C169.981 29.948 170.101 29.132 170.173 28.676L171.289 20.576C170.665 20.504 170.077 20.468 169.525 20.468C167.485 20.468 165.937 20.828 164.881 21.548C163.825 22.244 163.297 23.252 163.297 24.572C163.297 25.172 163.357 25.664 163.477 26.048C163.621 26.408 163.801 26.816 164.017 27.272C164.113 27.464 164.161 27.68 164.161 27.92C164.161 28.448 163.909 28.916 163.405 29.324C162.925 29.708 162.385 29.9 161.785 29.9C161.017 29.9 160.453 29.564 160.093 28.892C159.373 27.62 159.013 26.252 159.013 24.788C159.013 23.276 159.421 21.896 160.237 20.648C161.077 19.4 162.337 18.404 164.017 17.66C165.697 16.892 167.773 16.508 170.245 16.508C171.325 16.508 172.309 16.568 173.197 16.688C174.109 16.808 175.105 17.036 176.185 17.372C177.361 17.732 177.949 18.404 177.949 19.388C177.949 20.708 177.385 21.368 176.257 21.368L174.853 31.052C177.661 30.764 179.941 29.564 181.693 27.452C183.469 25.316 184.945 22.424 186.121 18.776C186.337 18.104 186.697 17.588 187.201 17.228C187.729 16.868 188.389 16.688 189.181 16.688C189.853 16.688 190.369 16.844 190.729 17.156C191.113 17.444 191.305 17.864 191.305 18.416C191.305 18.584 191.257 18.86 191.161 19.244C189.961 23.204 188.245 26.348 186.013 28.676C183.781 31.004 181.345 32.552 178.705 33.32C179.617 33.536 180.361 33.86 180.937 34.292C181.537 34.724 182.041 35.264 182.449 35.912C182.857 36.536 183.325 37.412 183.853 38.54C184.597 40.124 185.293 41.252 185.941 41.924C186.589 42.572 187.345 42.896 188.209 42.896C188.977 42.896 189.709 42.644 190.405 42.14C191.101 41.612 191.977 40.724 193.033 39.476C193.321 39.14 193.645 38.972 194.005 38.972ZM196.796 27.848C195.788 27.848 195.032 27.62 194.528 27.164C194.024 26.684 193.772 26.024 193.772 25.184C193.772 24.344 194.096 23.648 194.744 23.096C195.416 22.52 196.244 22.232 197.228 22.232C198.116 22.232 198.836 22.448 199.388 22.88C199.94 23.312 200.216 23.924 200.216 24.716C200.216 25.676 199.904 26.444 199.28 27.02C198.656 27.572 197.828 27.848 196.796 27.848ZM196.508 47.18C194.948 47.18 193.808 46.628 193.088 45.524C192.392 44.42 192.044 42.956 192.044 41.132C192.044 40.052 192.176 38.672 192.44 36.992C192.728 35.288 193.088 33.704 193.52 32.24C193.736 31.472 194.024 30.944 194.384 30.656C194.744 30.368 195.32 30.224 196.112 30.224C197.336 30.224 197.948 30.632 197.948 31.448C197.948 32.048 197.72 33.44 197.264 35.624C196.688 38.264 196.4 40.052 196.4 40.988C196.4 41.708 196.496 42.26 196.688 42.644C196.88 43.028 197.204 43.22 197.66 43.22C198.092 43.22 198.632 42.92 199.28 42.32C199.928 41.72 200.792 40.772 201.872 39.476C202.16 39.14 202.484 38.972 202.844 38.972C203.156 38.972 203.396 39.116 203.564 39.404C203.756 39.692 203.852 40.088 203.852 40.592C203.852 41.552 203.624 42.296 203.168 42.824C200.792 45.728 198.572 47.18 196.508 47.18ZM216.995 38.972C217.307 38.972 217.547 39.116 217.715 39.404C217.907 39.692 218.003 40.088 218.003 40.592C218.003 41.552 217.775 42.296 217.319 42.824C216.287 44.096 215.159 45.14 213.935 45.956C212.711 46.772 211.307 47.18 209.723 47.18C204.827 47.18 202.379 43.736 202.379 36.848C202.379 35.792 202.415 34.724 202.487 33.644H201.083C200.363 33.644 199.871 33.512 199.607 33.248C199.367 32.984 199.247 32.564 199.247 31.988C199.247 30.644 199.787 29.972 200.867 29.972H202.919C203.327 27.332 203.951 24.92 204.791 22.736C205.631 20.552 206.639 18.812 207.815 17.516C209.015 16.22 210.299 15.572 211.667 15.572C212.675 15.572 213.467 16.016 214.043 16.904C214.619 17.792 214.907 18.908 214.907 20.252C214.907 23.972 213.347 27.212 210.227 29.972H214.259C214.643 29.972 214.919 30.056 215.087 30.224C215.255 30.392 215.339 30.704 215.339 31.16C215.339 32.816 213.983 33.644 211.271 33.644H206.879C206.831 34.844 206.807 35.78 206.807 36.452C206.807 38.948 207.095 40.7 207.671 41.708C208.271 42.716 209.207 43.22 210.479 43.22C211.511 43.22 212.423 42.908 213.215 42.284C214.007 41.66 214.943 40.724 216.023 39.476C216.311 39.14 216.635 38.972 216.995 38.972ZM210.695 19.028C210.335 19.028 209.927 19.484 209.471 20.396C209.039 21.284 208.619 22.532 208.211 24.14C207.827 25.724 207.503 27.488 207.239 29.432C208.655 28.208 209.711 26.84 210.407 25.328C211.127 23.792 211.487 22.4 211.487 21.152C211.487 19.736 211.223 19.028 210.695 19.028ZM219.212 47.18C217.844 47.18 216.728 46.64 215.864 45.56C215.024 44.48 214.604 43.064 214.604 41.312C214.604 39.392 215.048 37.58 215.936 35.876C216.824 34.148 218 32.768 219.464 31.736C220.952 30.68 222.524 30.152 224.18 30.152C224.708 30.152 225.056 30.26 225.224 30.476C225.416 30.668 225.572 31.028 225.692 31.556C226.148 31.46 226.652 31.412 227.204 31.412C227.78 31.412 228.224 31.556 228.536 31.844C228.848 32.132 229.004 32.54 229.004 33.068C229.004 33.62 228.884 34.58 228.644 35.948C228.38 37.412 228.176 38.816 228.032 40.16C227.888 41.48 227.816 42.968 227.816 44.624C227.816 45.536 227.624 46.196 227.24 46.604C226.88 46.988 226.28 47.18 225.44 47.18C224.624 47.18 224.012 46.988 223.604 46.604C223.22 46.196 223.028 45.548 223.028 44.66L223.064 44.084C222.32 46.148 221.036 47.18 219.212 47.18ZM220.616 43.544C221.288 43.544 221.9 43.076 222.452 42.14C223.004 41.204 223.496 39.536 223.928 37.136L224.612 33.5C223.628 33.524 222.716 33.908 221.876 34.652C221.036 35.372 220.364 36.332 219.86 37.532C219.356 38.732 219.104 40.004 219.104 41.348C219.104 42.068 219.236 42.62 219.5 43.004C219.788 43.364 220.16 43.544 220.616 43.544Z" fill="black"/>
<path d="M29.5 65C45.7924 65 59 51.7924 59 35.5C59 19.2076 45.7924 6 29.5 6C13.2076 6 0 19.2076 0 35.5C0 51.7924 13.2076 65 29.5 65Z" fill="#25B7D3"/>
<path d="M44.5182 48.9091C44.1882 48.1941 43.6075 47.6251 42.886 47.3097L34.8636 45.1545V42.4722L33.1242 44.2105C32.5207 44.8139 31.7023 45.1529 30.849 45.1529H28.1505C27.2972 45.1528 26.4788 44.8139 25.8753 44.2105L24.1364 42.4722V45.1545L16.114 47.3097C15.3925 47.6251 14.8118 48.1941 14.4818 48.9091L12.3364 52.6636H46.6636L44.5182 48.9091Z" fill="white"/>
<path d="M37.5454 32.2818C37.3186 32.2818 37.148 32.3365 37.0069 32.4122C37.0032 32.0008 37.0252 31.5996 37.0069 31.2091H22.0247C22.0012 31.7451 21.99 32.2816 21.9909 32.8182V39.4385C21.9909 40.0076 22.2173 40.5536 22.6195 40.9559L25.8758 44.2105C26.4793 44.8139 27.2977 45.1529 28.151 45.1529H30.8495C31.7028 45.1528 32.5212 44.8139 33.1247 44.2105L36.381 40.9559C36.7834 40.5534 37.0095 40.0076 37.0096 39.4385V37.5452C38.2036 37.0769 38.6187 35.0457 38.6187 33.4742C38.6182 32.8777 38.0818 32.2818 37.5454 32.2818Z" fill="#BF8662"/>
<path d="M29.5 52.1273C30.0925 52.1273 30.5727 51.647 30.5727 51.0545C30.5727 50.4621 30.0925 49.9818 29.5 49.9818C28.9076 49.9818 28.4273 50.4621 28.4273 51.0545C28.4273 51.647 28.9076 52.1273 29.5 52.1273Z" fill="#F3B607"/>
<path d="M29.5 48.3727C30.0925 48.3727 30.5727 47.8925 30.5727 47.3C30.5727 46.7075 30.0925 46.2273 29.5 46.2273C28.9076 46.2273 28.4273 46.7075 28.4273 47.3C28.4273 47.8925 28.9076 48.3727 29.5 48.3727Z" fill="#F3B607"/>
<path d="M22.0247 31.2091C22.0066 31.6099 21.9961 32.011 21.9931 32.4122C21.8276 32.3235 21.6422 32.2787 21.4545 32.2818C20.9182 32.2818 20.3818 32.8777 20.3818 33.4736C20.3818 35.0457 20.797 37.0764 21.9909 37.5446V39.438C21.9909 40.0071 22.2173 40.5531 22.6195 40.9554L25.8758 44.21C26.4793 44.8134 27.2977 45.1524 28.151 45.1524H29.5V31.2091H22.0247Z" fill="#CC9978"/>
<path d="M27.3545 39.2545H31.6455C31.6455 39.2545 31.6455 40.8636 29.5 40.8636C27.3545 40.8636 27.3545 39.2545 27.3545 39.2545Z" fill="#9C6144"/>
<path d="M27.8877 33.3529C27.8877 33.0684 27.7747 32.7956 27.5735 32.5944C27.3723 32.3932 27.0995 32.2802 26.815 32.2802H26.8117C26.8123 32.2915 26.815 32.3022 26.815 32.3135C26.815 32.5974 26.7024 32.8698 26.5019 33.0709C26.3014 33.2719 26.0294 33.3853 25.7455 33.3862C25.7476 33.5269 25.7775 33.6657 25.8333 33.7948C25.8892 33.9239 25.9699 34.0408 26.0709 34.1387C26.1719 34.2366 26.2912 34.3137 26.422 34.3655C26.5528 34.4173 26.6925 34.4429 26.8332 34.4407C26.9739 34.4385 27.1127 34.4086 27.2418 34.3528C27.371 34.2969 27.4878 34.2162 27.5857 34.1152C27.6836 34.0142 27.7607 33.8949 27.8125 33.7641C27.8643 33.6333 27.8899 33.4936 27.8877 33.3529V33.3529Z" fill="#3E3E3F"/>
<path d="M33.2476 33.3529C33.2476 33.0684 33.1346 32.7956 32.9334 32.5944C32.7322 32.3932 32.4594 32.2802 32.1748 32.2802H32.1716C32.1722 32.2915 32.1748 32.3022 32.1748 32.3135C32.1748 32.5974 32.0623 32.8698 31.8618 33.0709C31.6613 33.2719 31.3893 33.3853 31.1053 33.3862C31.1075 33.5269 31.1374 33.6657 31.1932 33.7948C31.2491 33.9239 31.3298 34.0408 31.4308 34.1387C31.5318 34.2366 31.6511 34.3137 31.7819 34.3655C31.9127 34.4173 32.0524 34.4429 32.1931 34.4407C32.3337 34.4385 32.4726 34.4086 32.6017 34.3528C32.7308 34.2969 32.8477 34.2162 32.9456 34.1152C33.0435 34.0142 33.1206 33.8949 33.1724 33.7641C33.2242 33.6333 33.2498 33.4936 33.2476 33.3529V33.3529Z" fill="#3E3E3F"/>
<path d="M38.6182 22.8955C38.6182 21.9708 38.2509 21.084 37.5971 20.4302C36.9432 19.7764 36.0565 19.4091 35.1318 19.4091C34.3576 19.4089 33.6056 19.6678 32.9955 20.1444C32.6 19.5854 32.0761 19.1293 31.4679 18.8146C30.8597 18.4998 30.1848 18.3356 29.5 18.3356C28.8152 18.3356 28.1403 18.4998 27.5321 18.8146C26.9239 19.1293 26.4 19.5854 26.0045 20.1444C25.3944 19.6678 24.6424 19.4089 23.8682 19.4091C22.9435 19.4091 22.0568 19.7764 21.403 20.4302C20.7491 21.084 20.3818 21.9708 20.3818 22.8955C20.3818 24.1291 21.0244 25.2104 21.9909 25.8304V31.2091H37.0091V25.8304C37.5023 25.5158 37.9082 25.0819 38.1894 24.569C38.4706 24.056 38.6181 23.4805 38.6182 22.8955V22.8955Z" fill="#F1F2F2"/>
<path d="M32.7182 25.3091H33.7909V30.1364H32.7182V25.3091Z" fill="#E2E4E5"/>
<path d="M29.5 31.2091V18.3364C28.8152 18.3363 28.1404 18.5004 27.5322 18.815C26.924 19.1296 26.4001 19.5855 26.0045 20.1444C25.3944 19.6678 24.6424 19.4089 23.8682 19.4091C22.9435 19.4091 22.0568 19.7764 21.403 20.4302C20.7491 21.084 20.3818 21.9708 20.3818 22.8955C20.3818 24.1291 21.0244 25.2104 21.9909 25.8304V31.2091H29.5Z" fill="white"/>
<path d="M28.9636 25.3091H30.0364V30.1364H28.9636V25.3091Z" fill="#E2E4E5"/>
<path d="M25.2091 25.3091H26.2818V30.1364H25.2091V25.3091Z" fill="#E2E4E5"/>
<path d="M35.4 31.2091V34.4273H35.9364L37.0091 32.2818V31.2091H35.4Z" fill="#3E3E3F"/>
<path d="M21.9909 31.2091V32.2818L23.0636 34.4273H23.6V31.2091H21.9909Z" fill="#3E3E3F"/>
<path d="M29.5 38.1818C28.4273 36.5727 25.7455 37.6455 24.6727 39.2545H29.5V38.1818Z" fill="#3E3E3F"/>
<path d="M29.5 38.1818C30.5727 36.5727 33.2545 37.6455 34.3273 39.2545H29.5V38.1818Z" fill="#3E3E3F"/>
</svg>
