<svg width="70" height="70" viewBox="0 0 70 70" fill="none" xmlns="http://www.w3.org/2000/svg">
<path d="M35 70C54.33 70 70 54.33 70 35C70 15.67 54.33 0 35 0C15.67 0 0 15.67 0 35C0 54.33 15.67 70 35 70Z" fill="#25B7D3"/>
<path d="M52.8182 50.9091C52.4267 50.0608 51.7377 49.3857 50.8817 49.0115L41.3636 46.4545V43.2721L39.2999 45.3345C38.5839 46.0504 37.6129 46.4526 36.6005 46.4526H33.3989C32.3865 46.4525 31.4155 46.0503 30.6995 45.3345L28.6364 43.2721V46.4545L19.1183 49.0115C18.2623 49.3857 17.5733 50.0608 17.1818 50.9091L14.6364 55.3636H55.3636L52.8182 50.9091Z" fill="white"/>
<path d="M44.5455 31.1818C44.2763 31.1818 44.0739 31.2467 43.9065 31.3365C43.9021 30.8484 43.9282 30.3724 43.9065 29.9091H26.131C26.1032 30.5451 26.0898 31.1816 26.0909 31.8182V39.6728C26.0909 40.348 26.3595 40.9958 26.8367 41.4731L30.7001 45.3345C31.4161 46.0504 32.3871 46.4526 33.3995 46.4526H36.6011C37.6135 46.4525 38.5845 46.0503 39.3005 45.3345L43.1639 41.4731C43.6413 40.9956 43.9096 40.3481 43.9097 39.6728V37.4265C45.3263 36.8709 45.8188 34.461 45.8188 32.5965C45.8182 31.8888 45.1818 31.1818 44.5455 31.1818Z" fill="#BF8662"/>
<path d="M35 54.7273C35.7029 54.7273 36.2727 54.1575 36.2727 53.4545C36.2727 52.7516 35.7029 52.1818 35 52.1818C34.2971 52.1818 33.7273 52.7516 33.7273 53.4545C33.7273 54.1575 34.2971 54.7273 35 54.7273Z" fill="#F3B607"/>
<path d="M35 50.2727C35.7029 50.2727 36.2727 49.7029 36.2727 49C36.2727 48.2971 35.7029 47.7273 35 47.7273C34.2971 47.7273 33.7273 48.2971 33.7273 49C33.7273 49.7029 34.2971 50.2727 35 50.2727Z" fill="#F3B607"/>
<path d="M26.131 29.9091C26.1096 30.3846 26.0971 30.8605 26.0935 31.3365C25.8971 31.2313 25.6772 31.1781 25.4545 31.1818C24.8182 31.1818 24.1818 31.8888 24.1818 32.5958C24.1818 34.461 24.6744 36.8703 26.0909 37.4258V39.6722C26.0909 40.3474 26.3595 40.9952 26.8367 41.4725L30.7001 45.3339C31.4161 46.0498 32.3871 46.452 33.3995 46.452H35V29.9091H26.131Z" fill="#CC9978"/>
<path d="M32.4545 39.4545H37.5455C37.5455 39.4545 37.5455 41.3636 35 41.3636C32.4545 41.3636 32.4545 39.4545 32.4545 39.4545Z" fill="#9C6144"/>
<path d="M33.0871 32.4526C33.0871 32.1151 32.953 31.7914 32.7143 31.5527C32.4756 31.314 32.1519 31.1799 31.8144 31.1799H31.8105C31.8112 31.1933 31.8144 31.206 31.8144 31.2194C31.8144 31.5563 31.6808 31.8794 31.4429 32.118C31.2051 32.3565 30.8823 32.4911 30.5455 32.4921C30.548 32.659 30.5835 32.8237 30.6497 32.9769C30.716 33.1301 30.8118 33.2687 30.9316 33.3849C31.0515 33.5011 31.193 33.5925 31.3482 33.654C31.5034 33.7155 31.6691 33.7458 31.836 33.7432C32.0029 33.7406 32.1676 33.7052 32.3208 33.6389C32.474 33.5726 32.6127 33.4769 32.7288 33.357C32.845 33.2372 32.9364 33.0956 32.9979 32.9405C33.0594 32.7853 33.0897 32.6195 33.0871 32.4526V32.4526Z" fill="#3E3E3F"/>
<path d="M39.4463 32.4526C39.4463 32.1151 39.3122 31.7914 39.0735 31.5527C38.8348 31.314 38.5111 31.1799 38.1735 31.1799H38.1697C38.1704 31.1933 38.1735 31.206 38.1735 31.2194C38.1735 31.5563 38.04 31.8794 37.8021 32.118C37.5643 32.3565 37.2415 32.4911 36.9046 32.4921C36.9072 32.659 36.9427 32.8237 37.0089 32.9769C37.0752 33.1301 37.171 33.2687 37.2908 33.3849C37.4106 33.5011 37.5522 33.5925 37.7074 33.654C37.8625 33.7155 38.0283 33.7458 38.1952 33.7432C38.3621 33.7406 38.5268 33.7052 38.68 33.6389C38.8332 33.5726 38.9718 33.4769 39.088 33.357C39.2042 33.2372 39.2956 33.0956 39.3571 32.9405C39.4186 32.7853 39.4489 32.6195 39.4463 32.4526V32.4526Z" fill="#3E3E3F"/>
<path d="M45.8182 20.0455C45.8182 18.9484 45.3824 17.8963 44.6067 17.1206C43.8309 16.3449 42.7788 15.9091 41.6818 15.9091C40.7632 15.9089 39.871 16.216 39.1472 16.7815C38.6779 16.1182 38.0564 15.5772 37.3348 15.2037C36.6132 14.8303 35.8125 14.6354 35 14.6354C34.1875 14.6354 33.3868 14.8303 32.6652 15.2037C31.9436 15.5772 31.3221 16.1182 30.8528 16.7815C30.129 16.216 29.2368 15.9089 28.3182 15.9091C27.2211 15.9091 26.169 16.3449 25.3933 17.1206C24.6176 17.8963 24.1818 18.9484 24.1818 20.0455C24.1818 21.5091 24.9442 22.792 26.0909 23.5276V29.9091H43.9091V23.5276C44.4942 23.1543 44.9758 22.6396 45.3095 22.031C45.6431 21.4224 45.8181 20.7395 45.8182 20.0455V20.0455Z" fill="#F1F2F2"/>
<path d="M38.8182 22.9091H40.0909V28.6364H38.8182V22.9091Z" fill="#E2E4E5"/>
<path d="M35 29.9091V14.6364C34.1876 14.6363 33.387 14.831 32.6654 15.2043C31.9437 15.5775 31.3222 16.1184 30.8528 16.7815C30.129 16.216 29.2368 15.9089 28.3182 15.9091C27.2211 15.9091 26.169 16.3449 25.3933 17.1206C24.6176 17.8963 24.1818 18.9484 24.1818 20.0455C24.1818 21.5091 24.9442 22.792 26.0909 23.5276V29.9091H35Z" fill="white"/>
<path d="M34.3636 22.9091H35.6364V28.6364H34.3636V22.9091Z" fill="#E2E4E5"/>
<path d="M29.9091 22.9091H31.1818V28.6364H29.9091V22.9091Z" fill="#E2E4E5"/>
<path d="M42 29.9091V33.7273H42.6364L43.9091 31.1818V29.9091H42Z" fill="#3E3E3F"/>
<path d="M26.0909 29.9091V31.1818L27.3636 33.7273H28V29.9091H26.0909Z" fill="#3E3E3F"/>
<path d="M35 38.1818C33.7273 36.2727 30.5455 37.5455 29.2727 39.4545H35V38.1818Z" fill="#3E3E3F"/>
<path d="M35 38.1818C36.2727 36.2727 39.4545 37.5455 40.7273 39.4545H35V38.1818Z" fill="#3E3E3F"/>
</svg>
